# xmcd CD database file
#
# Track frame offsets:
#	150
#	12925
#	26060
#	39545
#	52920
#	66850
#	80137
#	93922
#	105502
#	118530
#	129257
#	157225
#	170650
#	188440
#	207347
#	221040
#	230110
#	241667
#	253137
#	267160
#
# Disc length: 3755 seconds
#
# Revision: 0
# Processed by: cddbd v1.5.2PL0 Copyright (c) Steve Scherf et al.
# Submitted via: CDex 1.51
#
DISCID=160ea914
DTITLE=B.B.King - Best Blues Masters Vol. 1
DYEAR=1900
DGENRE=Blues
TTITLE0=Everyday I Have The Blues
TTITLE1=Bad Luck
TTITLE2=Crying Won't Help You
TTITLE3=Woke Up This Morning
TTITLE4=You Know I Love You
TTITLE5=Blind Love
TTITLE6=You Upset Me Baby
TTITLE7=Did You Ever Love A Woman
TTITLE8=The Woman I Love
TTITLE9=I've Got Papers On You Baby
TTITLE10=Sweet Sixteen (Parts 1 and 2)
TTITLE11=Partin' Time
TTITLE12=Hold Tha Train
TTITLE13=You're Breaking My Heart
TTITLE14=Rock Me Baby
TTITLE15=Beautician Blues
TTITLE16=It's A Mean World
TTITLE17=Eyesight To The Blind
TTITLE18=Blues Stay Away
TTITLE19=The Jungle
EXTD=
EXTT0=
EXTT1=
EXTT2=
EXTT3=
EXTT4=
EXTT5=
EXTT6=
EXTT7=
EXTT8=
EXTT9=
EXTT10=
EXTT11=
EXTT12=
EXTT13=
EXTT14=
EXTT15=
EXTT16=
EXTT17=
EXTT18=
EXTT19=
PLAYORDER=
